Coordinates
version=1
nRows=9
nColumns=24
inDegrees=yes

Units are S.I. units (second, meters, Newtons, ...)
Angles are in degrees.

endheader
time	pelvis_tilt	pelvis_list	pelvis_rotation	pelvis_tx	pelvis_ty	pelvis_tz	hip_flexion_r	hip_adduction_r	hip_rotation_r	knee_angle_r	ankle_angle_r	subtalar_angle_r	mtp_angle_r	hip_flexion_l	hip_adduction_l	hip_rotation_l	knee_angle_l	ankle_angle_l	subtalar_angle_l	mtp_angle_l	lumbar_extension	lumbar_bending	lumbar_rotation
      3.58000000	     -8.89028518	      1.88679245	     -8.53731292	     -1.31016538	     -0.04624879	      0.73979923	     -9.78138039	     -3.67818632	     12.68390789	    -11.70654466	     10.28018521	      5.92794985	     16.31563552	     38.97426704	     -3.55959739	     -7.83088390	    -22.84646704	      3.00311662	      5.26199110	      2.36030819	      3.62997869	      1.69968070	     10.46648287
      3.58500000	     -9.07710855	      2.21349412	     -8.69560922	     -1.30234757	     -0.04728065	      0.74011364	     -9.57337913	     -4.03775047	     12.54304136	    -12.40993452	      9.81442060	      6.22297800	     17.46901013	     39.07367907	     -3.29495712	     -7.93111410	    -23.23070717	      1.97943257	      4.85113582	      4.41974796	      3.93496683	      1.20591408	     10.58515795
      3.59000000	     -9.24770855	      2.52856693	     -8.88527280	     -1.29464361	     -0.04821373	      0.74035513	     -9.28118946	     -4.39065406	     12.39598372	    -13.30150116	      9.45667041	      6.76712744	     17.92641547	     39.21740856	     -3.03447987	     -7.91121329	    -23.83274410	      1.25864305	      4.46421779	      5.33161259	      4.19830988	      0.73994994	     10.79432849
      3.59500000	     -9.43114502	      2.90472512	     -8.91177041	     -1.28682064	     -0.04915728	      0.74051220	     -8.96011748	     -4.78133245	     12.05143364	    -14.22427091	      8.95372227	      7.24181499	     18.91881003	     39.44773221	     -2.63102103	     -7.76935821	    -24.54701527	      0.27815178	      4.10989592	      6.98153241	      4.50378775	      0.17139312	     10.78617964
      3.60000000	     -9.62759090	      3.28773036	     -8.94484229	     -1.27905912	     -0.05002658	      0.74069262	     -8.54324276	     -5.16766682	     11.73991959	    -15.27299158	      8.36182564	      7.69354291	     19.88199919	     39.74125780	     -2.21583093	     -7.49682753	    -25.37627941	     -0.64931644	      3.77412292	      8.55465497	      4.81248849	     -0.40652363	     10.82005424
      3.60500000	     -9.82750808	      3.66618911	     -9.00672819	     -1.27142634	     -0.05082266	      0.74078703	     -8.00539907	     -5.55739686	     11.42843546	    -16.50685870	      7.76921528	      8.32659268	     20.60301792	     40.08940087	     -1.78197839	     -7.06542676	    -26.32145088	     -1.31460738	      3.36660728	      9.40161359	      5.10119508	     -0.96284191	     10.91323827
      3.61000000	     -9.96219910	      4.07573800	     -8.88152048	     -1.26361493	     -0.05156837	      0.74086163	     -7.55379863	     -5.96758985	     10.88663260	    -17.70865816	      6.86806499	      8.76935006	     22.30384437	     40.39736614	     -1.21476668	     -6.52189483	    -27.25513856	     -2.07611305	      3.15925793	     11.28950535	      5.34173902	     -1.62219069	     10.75965624
      3.61500000	    -10.18173702	      4.53255409	     -8.85630163	     -1.25586204	     -0.05232604	      0.74091767	     -6.85308542	     -6.42797812	     10.45411704	    -19.17439338	      6.07459120	      9.42545796	     23.05462964	     40.80608117	     -0.63785676	     -6.00222551	    -28.22018455	     -2.43087539	      2.74908447	     11.84009930	      5.67930287	     -2.28093706	     10.78447076
      3.62000000	    -10.27631208	      4.97046826	     -8.69576021	     -1.24801926	     -0.05297917	      0.74090844	     -6.28795497	     -6.88585902	      9.81070140	    -20.59828698	      4.86962256	      9.83265924	     25.12984702	     41.07357955	      0.01931094	     -5.44548560	    -29.12392301	     -2.68096855	      2.38279203	     12.65643571	      5.87506033	     -2.97870706	     10.60121031
